# xmcd CD database file
#
# Track frame offsets:
#	150
#	20682
#	36025
#	51520
#	65897
#	78340
#	89682
#	104105
#	125800
#	142425
#	157052
#	175390
#	199853
#
# Disc length: 3726 seconds
#
# Revision: 2
# Processed by: cddbd v1.5.1PL0 Copyright (c) Steve Scherf et al.
# Submitted via: CDex 1.51
#
DISCID=d50e8c0d
DTITLE=Tahiti 80 - Puzzle
DYEAR=1900
DGENRE=Pop
TTITLE0=Yellow Butterfly
TTITLE1=I.S.A.A.C.
TTITLE2=Heartbeat
TTITLE3=Made First Never Forget
TTITLE4=Mr. Davis
TTITLE5=Swimming Suit
TTITLE6=Hey Joe
TTITLE7=Puzzle
TTITLE8=Easy Way Out
TTITLE9=Things Are Made to Last Forever
TTITLE10=Revolution 80
TTITLE11=When the Sun
TTITLE12=Data Track
EXTD=
EXTT0=
EXTT1=
EXTT2=
EXTT3=
EXTT4=
EXTT5=
EXTT6=
EXTT7=
EXTT8=
EXTT9=
EXTT10=
EXTT11=
EXTT12=
PLAYORDER=
